# xmcd
#
# Track frame offsets: 
#        150
#        25542
#        35253
#        54746
#        57914
#        76524
#        82997
#        94827
#        98958
#        128321
#        132439
#        138587
#        145407
#        152798
#        164381
#        170031
#        176299
#        189222
#        198244
#        202107
#        219087
#        220704
#        226859
#        230819
#        236637
#        245154
#        260552
#        281254
#
# Disc length: 3999 seconds
#
# Revision: 10
# Processed by: cddbd v1.5.2PL0 Copyright (c) Steve Scherf et al.
# Submitted via: ExactAudioCopy v0.95b4
#
DISCID=800f9d1c
DTITLE=Pat Metheny - A Map Of The World
DYEAR=1999
DGENRE=Jazz
TTITLE0=A Map Of The World
TTITLE1=Family
TTITLE2=North
TTITLE3=Home
TTITLE4=Sisters
TTITLE5=Childhood
TTITLE6=Fall From Grace
TTITLE7=Memory
TTITLE8=Gone
TTITLE9=Flight
TTITLE10=Alone
TTITLE11=Outcasts
TTITLE12=Sunday
TTITLE13=Discovery
TTITLE14=Acceptance
TTITLE15=Realization
TTITLE16=Soliloquy
TTITLE17=Night
TTITLE18=Sunrise
TTITLE19=Resolution
TTITLE20=Pictures
TTITLE21=Patience
TTITLE22=Transition
TTITLE23=Reunion
TTITLE24=Renewal
TTITLE25=Homecoming
TTITLE26=Forgiving
TTITLE27=Holding Us
EXTD=Pat Metheny - Acoustic Guitars, Piano and KeyboardsSteve Rodby - 
EXTD=Acoustic Bass, OrganDavid Samuels - PercussionGil Goldstein - Org
EXTD=an+Symphonic orchestraA Scott Elliott Film with Sigourney Weaver,
EXTD=Julianne Moore,David Strathairn, ArlissHowardAdapted from the no
EXTD=vel byJane HamiltonMusic Composed, arranged and performed by Pat 
EXTD=MethenyOrchestrated by Gil GoldsteinProduced by Pat Metheny and S
EXTD=teve Rodby9362-47366-2 WE 833 (P)+(C) 1999 Metheny Group Producti
EXTD=ons(C) 1999Overseas Filmgroup. YEAR: 1999
EXTT0=
EXTT1=
EXTT2=
EXTT3=
EXTT4=
EXTT5=
EXTT6=
EXTT7=
EXTT8=
EXTT9=
EXTT10=
EXTT11=
EXTT12=
EXTT13=
EXTT14=
EXTT15=
EXTT16=
EXTT17=
EXTT18=
EXTT19=
EXTT20=
EXTT21=
EXTT22=
EXTT23=
EXTT24=
EXTT25=
EXTT26=
EXTT27=
PLAYORDER=
